<svg width="22" height="22" viewBox="0 0 32 32" fill="none" xmlns="http://www.w3.org/2000/svg">
<path d="M16 2.667C8.64 2.667 2.667 8.64 2.667 16c0 2.853.853 5.52 2.32 7.747L2.667 29.333l5.76-2.28A13.24 13.24 0 0 0 16 29.333C23.36 29.333 29.333 23.36 29.333 16 29.333 8.64 23.36 2.667 16 2.667Z" 
stroke="#D4AF37" stroke-width="2.3" fill="#0C3823"/>
<path d="M22.02 19.893c-.34-.17-2.02-1-2.33-1.113-.31-.113-.54-.17-.77.17-.23.34-.88 1.113-1.08 1.34-.2.227-.4.257-.74.086-.34-.17-1.42-.52-2.7-1.66-.996-.89-1.67-1.99-1.87-2.33-.2-.34-.02-.53.15-.7.153-.153.34-.397.51-.597.17-.2.227-.34.34-.57.113-.23.057-.43-.028-.6-.086-.17-.77-1.86-1.06-2.54-.28-.68-.57-.59-.77-.59h-.66c-.23 0-.6.085-.913.43-.31.34-1.2 1.17-1.2 2.85 0 1.68 1.23 3.3 1.4 3.53.17.23 2.42 3.7 5.86 5.07.82.35 1.46.56 1.96.72.82.26 1.56.223 2.15.14.66-.1 2.02-.83 2.31-1.64.28-.81.28-1.51.2-1.64-.06-.14-.28-.23-.62-.4Z"
fill="#D4AF37"/>
</svg>
